# xmcd
# 
# Track frame offsets:
#     150
#     12579
#     35797
#     64535
#     86009
#     119470
#     145151
#     170345
#     184123
#     198244
#     218153
#     233409
#     253366
# 
# Disc length: 3597
# 
# Revision: 2
# Processed by: cddbd v1.5.2PL0 Copyright (c) Steve Scherf et al.
# Submitted via: fre:ac v1.0.17
# 
DISCID=b80e0b0d
DTITLE=Tord Gustavsen - Simin Tander - Jarle Vespestad - What was said
DYEAR=2016
DGENRE=Jazz
TTITLE0=Your Grief
TTITLE1=I See You
TTITLE2=Imagine The Fog Disappearing
TTITLE3=A Castle In Heaven
TTITLE4=Journey Of Life
TTITLE5=I Refuse
TTITLE6=What Was Said To The Rose - O Sacred Head
TTITLE7=The Way You Play My Heart
TTITLE8=Rull
TTITLE9=The Source Of Now
TTITLE10=Sweet Melting
TTITLE11=Longing To Praise Thee
TTITLE12=Sweet Melting Afterglow
EXTD=YEAR: 2016
EXTT0=
EXTT1=
EXTT2=
EXTT3=
EXTT4=
EXTT5=
EXTT6=
EXTT7=
EXTT8=
EXTT9=
EXTT10=
EXTT11=
EXTT12=
PLAYORDER=
